<svg xmlns="http://www.w3.org/2000/svg" viewBox="0 0 32 32" width="32" height="32">
  <defs>
    <linearGradient id="lg" x1="0%" y1="0%" x2="100%" y2="100%">
      <stop offset="0%" style="stop-color:#4a7c59"/>
      <stop offset="100%" style="stop-color:#2d3a1e"/>
    </linearGradient>
  </defs>
  <!-- Background -->
  <rect width="32" height="32" rx="7" fill="#1c1a14"/>
  <!-- Leaf -->
  <path d="M16 3 C16 3 27 6 29 16 C31 26 23 29 16 29 C9 29 1 26 3 16 C5 6 16 3 16 3 Z"
        fill="url(#lg)"/>
  <!-- Vein -->
  <path d="M16 27 L16 7" stroke="#ede7d9" stroke-width="0.8" opacity="0.4" fill="none" stroke-linecap="round"/>
  <!-- Village rooftops -->
  <polygon points="11,22 13.5,17 16,22" fill="#ede7d9" opacity="0.8"/>
  <polygon points="16,20 18.5,15 21,20" fill="#c8a96e" opacity="0.9"/>
  <!-- Doors -->
  <rect x="12" y="20.5" width="1.5" height="2" rx="0.3" fill="#2d3a1e"/>
  <rect x="17" y="18.5" width="1.5" height="2" rx="0.3" fill="#2d3a1e"/>
</svg>